<mxfile host="app.diagrams.net" modified="2023-12-14T02:17:59.358Z" agent="Mozilla/5.0 (Windows NT 10.0; Win64; x64) AppleWebKit/537.36 (KHTML, like Gecko) Chrome/116.0.0.0 Safari/537.36" etag="Th44uXk_48MnnvxzU-jZ" version="22.1.8" type="github">
  <diagram name="第 1 页" id="ahhZ_oQwKZSK2pZefBPP">
    <mxGraphModel dx="4279" dy="1355" grid="1" gridSize="10" guides="1" tooltips="1" connect="1" arrows="1" fold="1" page="1" pageScale="1" pageWidth="827" pageHeight="1169" math="0" shadow="0">
      <root>
        <mxCell id="0" />
        <mxCell id="1" parent="0" />
        <mxCell id="pVk94E6_9Db-SWxM0IGJ-1" value="MySQL -&amp;gt; Redis 全量" style="text;html=1;align=center;verticalAlign=middle;resizable=0;points=[];autosize=1;strokeColor=none;fillColor=none;" vertex="1" parent="1">
          <mxGeometry x="-510" y="20" width="140" height="30" as="geometry" />
        </mxCell>
        <mxCell id="pVk94E6_9Db-SWxM0IGJ-16" style="edgeStyle=orthogonalEdgeStyle;rounded=0;orthogonalLoop=1;jettySize=auto;html=1;entryX=0.5;entryY=0;entryDx=0;entryDy=0;" edge="1" parent="1" source="pVk94E6_9Db-SWxM0IGJ-3" target="pVk94E6_9Db-SWxM0IGJ-15">
          <mxGeometry relative="1" as="geometry" />
        </mxCell>
        <mxCell id="pVk94E6_9Db-SWxM0IGJ-3" value="开始" style="strokeWidth=2;html=1;shape=mxgraph.flowchart.start_1;whiteSpace=wrap;" vertex="1" parent="1">
          <mxGeometry x="-490" y="60" width="100" height="60" as="geometry" />
        </mxCell>
        <mxCell id="pVk94E6_9Db-SWxM0IGJ-11" value="" style="edgeStyle=orthogonalEdgeStyle;rounded=0;orthogonalLoop=1;jettySize=auto;html=1;dashed=1;" edge="1" parent="1" source="pVk94E6_9Db-SWxM0IGJ-6" target="pVk94E6_9Db-SWxM0IGJ-10">
          <mxGeometry relative="1" as="geometry" />
        </mxCell>
        <mxCell id="pVk94E6_9Db-SWxM0IGJ-67" value="" style="edgeStyle=orthogonalEdgeStyle;rounded=0;orthogonalLoop=1;jettySize=auto;html=1;" edge="1" parent="1" source="pVk94E6_9Db-SWxM0IGJ-6" target="pVk94E6_9Db-SWxM0IGJ-61">
          <mxGeometry relative="1" as="geometry" />
        </mxCell>
        <mxCell id="pVk94E6_9Db-SWxM0IGJ-6" value="获取分布式锁" style="whiteSpace=wrap;html=1;strokeWidth=2;" vertex="1" parent="1">
          <mxGeometry x="-500" y="370" width="120" height="60" as="geometry" />
        </mxCell>
        <mxCell id="pVk94E6_9Db-SWxM0IGJ-19" value="" style="edgeStyle=orthogonalEdgeStyle;rounded=0;orthogonalLoop=1;jettySize=auto;html=1;" edge="1" parent="1" source="pVk94E6_9Db-SWxM0IGJ-10" target="pVk94E6_9Db-SWxM0IGJ-18">
          <mxGeometry relative="1" as="geometry" />
        </mxCell>
        <mxCell id="pVk94E6_9Db-SWxM0IGJ-10" value="setnx&lt;br&gt;key：cdo:app:cache:lock&lt;br&gt;value: 当前时间戳 + 持有锁时间（1小时）+ 1（为什么加1ms）&lt;br&gt;逻辑锁 无TTL&amp;nbsp;&amp;nbsp;" style="whiteSpace=wrap;html=1;strokeWidth=2;" vertex="1" parent="1">
          <mxGeometry x="190" y="370" width="346" height="62.5" as="geometry" />
        </mxCell>
        <mxCell id="pVk94E6_9Db-SWxM0IGJ-14" style="edgeStyle=orthogonalEdgeStyle;rounded=0;orthogonalLoop=1;jettySize=auto;html=1;entryX=0.5;entryY=0;entryDx=0;entryDy=0;" edge="1" parent="1" source="pVk94E6_9Db-SWxM0IGJ-12" target="pVk94E6_9Db-SWxM0IGJ-6">
          <mxGeometry relative="1" as="geometry" />
        </mxCell>
        <mxCell id="pVk94E6_9Db-SWxM0IGJ-12" value="开关是否打开" style="whiteSpace=wrap;html=1;strokeWidth=2;" vertex="1" parent="1">
          <mxGeometry x="-500" y="270" width="120" height="60" as="geometry" />
        </mxCell>
        <mxCell id="pVk94E6_9Db-SWxM0IGJ-17" style="edgeStyle=orthogonalEdgeStyle;rounded=0;orthogonalLoop=1;jettySize=auto;html=1;entryX=0.5;entryY=0;entryDx=0;entryDy=0;" edge="1" parent="1" source="pVk94E6_9Db-SWxM0IGJ-15" target="pVk94E6_9Db-SWxM0IGJ-12">
          <mxGeometry relative="1" as="geometry" />
        </mxCell>
        <mxCell id="pVk94E6_9Db-SWxM0IGJ-15" value="记录当前时间戳&lt;br&gt;startTIme" style="whiteSpace=wrap;html=1;strokeWidth=2;" vertex="1" parent="1">
          <mxGeometry x="-500" y="160" width="120" height="60" as="geometry" />
        </mxCell>
        <mxCell id="pVk94E6_9Db-SWxM0IGJ-21" value="" style="edgeStyle=orthogonalEdgeStyle;rounded=0;orthogonalLoop=1;jettySize=auto;html=1;" edge="1" parent="1" source="pVk94E6_9Db-SWxM0IGJ-18" target="pVk94E6_9Db-SWxM0IGJ-20">
          <mxGeometry relative="1" as="geometry" />
        </mxCell>
        <mxCell id="pVk94E6_9Db-SWxM0IGJ-44" value="" style="edgeStyle=orthogonalEdgeStyle;rounded=0;orthogonalLoop=1;jettySize=auto;html=1;" edge="1" parent="1" source="pVk94E6_9Db-SWxM0IGJ-18" target="pVk94E6_9Db-SWxM0IGJ-43">
          <mxGeometry relative="1" as="geometry" />
        </mxCell>
        <mxCell id="pVk94E6_9Db-SWxM0IGJ-18" value="setnx成功？" style="rhombus;whiteSpace=wrap;html=1;strokeWidth=2;" vertex="1" parent="1">
          <mxGeometry x="294.5" y="510" width="137" height="80" as="geometry" />
        </mxCell>
        <mxCell id="pVk94E6_9Db-SWxM0IGJ-38" value="" style="edgeStyle=orthogonalEdgeStyle;rounded=0;orthogonalLoop=1;jettySize=auto;html=1;" edge="1" parent="1" source="pVk94E6_9Db-SWxM0IGJ-20" target="pVk94E6_9Db-SWxM0IGJ-37">
          <mxGeometry relative="1" as="geometry" />
        </mxCell>
        <mxCell id="pVk94E6_9Db-SWxM0IGJ-20" value="说明锁被占有，获取value&lt;br style=&quot;border-color: var(--border-color);&quot;&gt;检查时间戳是否逻辑过期" style="whiteSpace=wrap;html=1;strokeWidth=2;" vertex="1" parent="1">
          <mxGeometry x="264.5" y="680" width="197" height="70" as="geometry" />
        </mxCell>
        <mxCell id="pVk94E6_9Db-SWxM0IGJ-24" value="N" style="text;html=1;align=center;verticalAlign=middle;resizable=0;points=[];autosize=1;strokeColor=none;fillColor=none;" vertex="1" parent="1">
          <mxGeometry x="360" y="585" width="30" height="30" as="geometry" />
        </mxCell>
        <mxCell id="pVk94E6_9Db-SWxM0IGJ-26" value="Y" style="text;html=1;align=center;verticalAlign=middle;resizable=0;points=[];autosize=1;strokeColor=none;fillColor=none;" vertex="1" parent="1">
          <mxGeometry x="273" y="518" width="30" height="30" as="geometry" />
        </mxCell>
        <mxCell id="pVk94E6_9Db-SWxM0IGJ-36" style="edgeStyle=orthogonalEdgeStyle;rounded=0;orthogonalLoop=1;jettySize=auto;html=1;entryX=1;entryY=0.75;entryDx=0;entryDy=0;dashed=1;" edge="1" parent="1" target="pVk94E6_9Db-SWxM0IGJ-6">
          <mxGeometry relative="1" as="geometry">
            <mxPoint x="180" y="527.5" as="sourcePoint" />
            <Array as="points">
              <mxPoint x="180" y="415" />
            </Array>
          </mxGeometry>
        </mxCell>
        <mxCell id="pVk94E6_9Db-SWxM0IGJ-41" value="" style="edgeStyle=orthogonalEdgeStyle;rounded=0;orthogonalLoop=1;jettySize=auto;html=1;" edge="1" parent="1" source="pVk94E6_9Db-SWxM0IGJ-37" target="pVk94E6_9Db-SWxM0IGJ-40">
          <mxGeometry relative="1" as="geometry" />
        </mxCell>
        <mxCell id="pVk94E6_9Db-SWxM0IGJ-47" value="" style="edgeStyle=orthogonalEdgeStyle;rounded=0;orthogonalLoop=1;jettySize=auto;html=1;" edge="1" parent="1" source="pVk94E6_9Db-SWxM0IGJ-37" target="pVk94E6_9Db-SWxM0IGJ-46">
          <mxGeometry relative="1" as="geometry" />
        </mxCell>
        <mxCell id="pVk94E6_9Db-SWxM0IGJ-37" value="分布式锁时间戳 &amp;lt; 当前时间？" style="rhombus;whiteSpace=wrap;html=1;strokeWidth=2;" vertex="1" parent="1">
          <mxGeometry x="262.75" y="830" width="200.5" height="80" as="geometry" />
        </mxCell>
        <mxCell id="pVk94E6_9Db-SWxM0IGJ-45" style="edgeStyle=orthogonalEdgeStyle;rounded=0;orthogonalLoop=1;jettySize=auto;html=1;entryX=1;entryY=0.75;entryDx=0;entryDy=0;dashed=1;" edge="1" parent="1" source="pVk94E6_9Db-SWxM0IGJ-40" target="pVk94E6_9Db-SWxM0IGJ-6">
          <mxGeometry relative="1" as="geometry">
            <Array as="points">
              <mxPoint x="180" y="590" />
              <mxPoint x="130" y="590" />
              <mxPoint x="130" y="415" />
            </Array>
          </mxGeometry>
        </mxCell>
        <mxCell id="pVk94E6_9Db-SWxM0IGJ-40" value="获取锁失败" style="whiteSpace=wrap;html=1;strokeWidth=2;" vertex="1" parent="1">
          <mxGeometry x="140" y="730" width="80" height="40" as="geometry" />
        </mxCell>
        <mxCell id="pVk94E6_9Db-SWxM0IGJ-43" value="获取锁成功" style="whiteSpace=wrap;html=1;strokeWidth=2;" vertex="1" parent="1">
          <mxGeometry x="140" y="530" width="84" height="40" as="geometry" />
        </mxCell>
        <mxCell id="pVk94E6_9Db-SWxM0IGJ-53" value="" style="edgeStyle=orthogonalEdgeStyle;rounded=0;orthogonalLoop=1;jettySize=auto;html=1;" edge="1" parent="1" source="pVk94E6_9Db-SWxM0IGJ-46" target="pVk94E6_9Db-SWxM0IGJ-52">
          <mxGeometry relative="1" as="geometry" />
        </mxCell>
        <mxCell id="pVk94E6_9Db-SWxM0IGJ-46" value="说明已过期&lt;br&gt;用GETSET设置&lt;font color=&quot;#ff4b0a&quot;&gt;&lt;br&gt;&lt;/font&gt;" style="whiteSpace=wrap;html=1;strokeWidth=2;" vertex="1" parent="1">
          <mxGeometry x="303" y="1000" width="120" height="60" as="geometry" />
        </mxCell>
        <mxCell id="pVk94E6_9Db-SWxM0IGJ-56" style="edgeStyle=orthogonalEdgeStyle;rounded=0;orthogonalLoop=1;jettySize=auto;html=1;entryX=1;entryY=0.5;entryDx=0;entryDy=0;" edge="1" parent="1" source="pVk94E6_9Db-SWxM0IGJ-52" target="pVk94E6_9Db-SWxM0IGJ-43">
          <mxGeometry relative="1" as="geometry">
            <Array as="points">
              <mxPoint x="250" y="550" />
            </Array>
          </mxGeometry>
        </mxCell>
        <mxCell id="pVk94E6_9Db-SWxM0IGJ-57" style="edgeStyle=orthogonalEdgeStyle;rounded=0;orthogonalLoop=1;jettySize=auto;html=1;entryX=0.5;entryY=1;entryDx=0;entryDy=0;" edge="1" parent="1" source="pVk94E6_9Db-SWxM0IGJ-52" target="pVk94E6_9Db-SWxM0IGJ-40">
          <mxGeometry relative="1" as="geometry">
            <Array as="points">
              <mxPoint x="180" y="1240" />
            </Array>
          </mxGeometry>
        </mxCell>
        <mxCell id="pVk94E6_9Db-SWxM0IGJ-52" value="获取到的值 == 前锁的时间戳？" style="rhombus;whiteSpace=wrap;html=1;strokeWidth=2;" vertex="1" parent="1">
          <mxGeometry x="243.32" y="1150" width="239.37" height="90" as="geometry" />
        </mxCell>
        <mxCell id="pVk94E6_9Db-SWxM0IGJ-55" value="Y" style="text;html=1;align=center;verticalAlign=middle;resizable=0;points=[];autosize=1;strokeColor=none;fillColor=none;" vertex="1" parent="1">
          <mxGeometry x="250" y="1150" width="30" height="30" as="geometry" />
        </mxCell>
        <mxCell id="pVk94E6_9Db-SWxM0IGJ-58" value="N" style="text;html=1;align=center;verticalAlign=middle;resizable=0;points=[];autosize=1;strokeColor=none;fillColor=none;" vertex="1" parent="1">
          <mxGeometry x="340" y="1250" width="30" height="30" as="geometry" />
        </mxCell>
        <mxCell id="pVk94E6_9Db-SWxM0IGJ-59" value="这里没有CAS的功能，不过获取到旧值是否和预期相同，都会设置值进去&lt;br style=&quot;border-color: var(--border-color); color: rgb(255, 75, 10);&quot;&gt;&lt;span style=&quot;color: rgb(255, 75, 10);&quot;&gt;如果Redis单线程可以锁住，但是可能存在时间戳并不是获取到分布式锁的那个线程设置的&lt;/span&gt;" style="text;html=1;align=center;verticalAlign=middle;resizable=0;points=[];autosize=1;strokeColor=none;fillColor=none;" vertex="1" parent="1">
          <mxGeometry x="440" y="1010" width="500" height="40" as="geometry" />
        </mxCell>
        <mxCell id="pVk94E6_9Db-SWxM0IGJ-70" value="" style="edgeStyle=orthogonalEdgeStyle;rounded=0;orthogonalLoop=1;jettySize=auto;html=1;" edge="1" parent="1" source="pVk94E6_9Db-SWxM0IGJ-61" target="pVk94E6_9Db-SWxM0IGJ-69">
          <mxGeometry relative="1" as="geometry" />
        </mxCell>
        <mxCell id="pVk94E6_9Db-SWxM0IGJ-90" style="edgeStyle=orthogonalEdgeStyle;rounded=0;orthogonalLoop=1;jettySize=auto;html=1;entryX=1;entryY=0.5;entryDx=0;entryDy=0;" edge="1" parent="1" source="pVk94E6_9Db-SWxM0IGJ-61" target="pVk94E6_9Db-SWxM0IGJ-65">
          <mxGeometry relative="1" as="geometry" />
        </mxCell>
        <mxCell id="pVk94E6_9Db-SWxM0IGJ-61" value="是服务启动时的全量加载？" style="rhombus;whiteSpace=wrap;html=1;" vertex="1" parent="1">
          <mxGeometry x="-540" y="518" width="200" height="80" as="geometry" />
        </mxCell>
        <mxCell id="pVk94E6_9Db-SWxM0IGJ-77" value="" style="edgeStyle=orthogonalEdgeStyle;rounded=0;orthogonalLoop=1;jettySize=auto;html=1;" edge="1" parent="1" source="pVk94E6_9Db-SWxM0IGJ-65" target="pVk94E6_9Db-SWxM0IGJ-76">
          <mxGeometry relative="1" as="geometry" />
        </mxCell>
        <mxCell id="pVk94E6_9Db-SWxM0IGJ-65" value="Redis GET 全量加载状态&lt;br&gt;KEY：cdo:app:cache:state" style="whiteSpace=wrap;html=1;" vertex="1" parent="1">
          <mxGeometry x="-760" y="528" width="160" height="60" as="geometry" />
        </mxCell>
        <mxCell id="pVk94E6_9Db-SWxM0IGJ-84" value="" style="edgeStyle=orthogonalEdgeStyle;rounded=0;orthogonalLoop=1;jettySize=auto;html=1;" edge="1" parent="1" source="pVk94E6_9Db-SWxM0IGJ-69" target="pVk94E6_9Db-SWxM0IGJ-83">
          <mxGeometry relative="1" as="geometry" />
        </mxCell>
        <mxCell id="pVk94E6_9Db-SWxM0IGJ-87" value="" style="edgeStyle=orthogonalEdgeStyle;rounded=0;orthogonalLoop=1;jettySize=auto;html=1;" edge="1" parent="1" source="pVk94E6_9Db-SWxM0IGJ-69" target="pVk94E6_9Db-SWxM0IGJ-83">
          <mxGeometry relative="1" as="geometry" />
        </mxCell>
        <mxCell id="pVk94E6_9Db-SWxM0IGJ-69" value="Redis DELETE 全量加载状态&lt;br style=&quot;border-color: var(--border-color);&quot;&gt;KEY：cdo:app:cache:state" style="whiteSpace=wrap;html=1;" vertex="1" parent="1">
          <mxGeometry x="-530" y="688" width="180" height="62" as="geometry" />
        </mxCell>
        <mxCell id="pVk94E6_9Db-SWxM0IGJ-71" value="Y" style="text;html=1;align=center;verticalAlign=middle;resizable=0;points=[];autosize=1;strokeColor=none;fillColor=none;" vertex="1" parent="1">
          <mxGeometry x="-560" y="530" width="30" height="30" as="geometry" />
        </mxCell>
        <mxCell id="pVk94E6_9Db-SWxM0IGJ-72" value="N" style="text;html=1;align=center;verticalAlign=middle;resizable=0;points=[];autosize=1;strokeColor=none;fillColor=none;" vertex="1" parent="1">
          <mxGeometry x="-440" y="598" width="30" height="30" as="geometry" />
        </mxCell>
        <mxCell id="pVk94E6_9Db-SWxM0IGJ-82" value="" style="edgeStyle=orthogonalEdgeStyle;rounded=0;orthogonalLoop=1;jettySize=auto;html=1;" edge="1" parent="1" source="pVk94E6_9Db-SWxM0IGJ-76" target="pVk94E6_9Db-SWxM0IGJ-81">
          <mxGeometry relative="1" as="geometry" />
        </mxCell>
        <mxCell id="pVk94E6_9Db-SWxM0IGJ-88" style="edgeStyle=orthogonalEdgeStyle;rounded=0;orthogonalLoop=1;jettySize=auto;html=1;entryX=0.5;entryY=0;entryDx=0;entryDy=0;" edge="1" parent="1" source="pVk94E6_9Db-SWxM0IGJ-76" target="pVk94E6_9Db-SWxM0IGJ-69">
          <mxGeometry relative="1" as="geometry" />
        </mxCell>
        <mxCell id="pVk94E6_9Db-SWxM0IGJ-76" value="VALUE == finsh?&lt;br&gt;是否全量加载完成？" style="rhombus;whiteSpace=wrap;html=1;" vertex="1" parent="1">
          <mxGeometry x="-767.5" y="628" width="175" height="80" as="geometry" />
        </mxCell>
        <mxCell id="pVk94E6_9Db-SWxM0IGJ-80" value="Y" style="text;html=1;align=center;verticalAlign=middle;resizable=0;points=[];autosize=1;strokeColor=none;fillColor=none;" vertex="1" parent="1">
          <mxGeometry x="-790" y="638" width="30" height="30" as="geometry" />
        </mxCell>
        <mxCell id="pVk94E6_9Db-SWxM0IGJ-81" value="结束" style="rounded=1;whiteSpace=wrap;html=1;" vertex="1" parent="1">
          <mxGeometry x="-1000" y="638" width="120" height="60" as="geometry" />
        </mxCell>
        <mxCell id="pVk94E6_9Db-SWxM0IGJ-94" value="" style="edgeStyle=orthogonalEdgeStyle;rounded=0;orthogonalLoop=1;jettySize=auto;html=1;" edge="1" parent="1" source="pVk94E6_9Db-SWxM0IGJ-83" target="pVk94E6_9Db-SWxM0IGJ-93">
          <mxGeometry relative="1" as="geometry" />
        </mxCell>
        <mxCell id="pVk94E6_9Db-SWxM0IGJ-83" value="从配置中心拉取配置的区域regions" style="whiteSpace=wrap;html=1;" vertex="1" parent="1">
          <mxGeometry x="-500" y="810" width="120" height="60" as="geometry" />
        </mxCell>
        <mxCell id="pVk94E6_9Db-SWxM0IGJ-86" value="N" style="text;html=1;align=center;verticalAlign=middle;resizable=0;points=[];autosize=1;strokeColor=none;fillColor=none;" vertex="1" parent="1">
          <mxGeometry x="-610" y="628" width="30" height="30" as="geometry" />
        </mxCell>
        <mxCell id="pVk94E6_9Db-SWxM0IGJ-99" style="edgeStyle=orthogonalEdgeStyle;rounded=0;orthogonalLoop=1;jettySize=auto;html=1;entryX=0.5;entryY=0;entryDx=0;entryDy=0;" edge="1" parent="1" source="pVk94E6_9Db-SWxM0IGJ-93" target="pVk94E6_9Db-SWxM0IGJ-97">
          <mxGeometry relative="1" as="geometry" />
        </mxCell>
        <mxCell id="pVk94E6_9Db-SWxM0IGJ-93" value="缓存hotLevels资源" style="whiteSpace=wrap;html=1;" vertex="1" parent="1">
          <mxGeometry x="-500" y="920" width="120" height="60" as="geometry" />
        </mxCell>
        <mxCell id="pVk94E6_9Db-SWxM0IGJ-97" value="&lt;br&gt;【同步 / 异步】&lt;br&gt;&lt;div style=&quot;text-align: left;&quot;&gt;&lt;span style=&quot;background-color: initial;&quot;&gt;1. Redis删除全量加载低等级资源状态&lt;br&gt;KEY：cdo:low:app:cache:state&lt;br&gt;&lt;br&gt;&lt;/span&gt;&lt;/div&gt;&lt;div style=&quot;text-align: left;&quot;&gt;2. 加载lowLevels资源&lt;br&gt;&lt;br&gt;3. Redis设置全量加载低等级资源状态&lt;br&gt;KEY：cdo:low:app:cache:state&lt;br&gt;&lt;span style=&quot;background-color: initial;&quot;&gt;VALUE: finish&lt;/span&gt;&lt;/div&gt;" style="whiteSpace=wrap;html=1;" vertex="1" parent="1">
          <mxGeometry x="-622.5" y="1050" width="365" height="171" as="geometry" />
        </mxCell>
      </root>
    </mxGraphModel>
  </diagram>
</mxfile>
